<svg width="66" height="66" fill="none" xmlns="http://www.w3.org/2000/svg"><circle cx="33" cy="33" r="33" fill="#fff"/><path d="M53.506 12.494C48.03 7.017 40.746 4 33 4s-15.029 3.017-20.506 8.494S4 25.254 4 33s3.017 15.029 8.494 20.506S25.254 62 33 62s15.029-3.017 20.506-8.494S62 40.746 62 33s-3.017-15.029-8.494-20.506zm-6.651 13.604L30.648 42.305a1.694 1.694 0 0 1-1.201.498c-.435 0-.87-.166-1.202-.498l-9.1-9.1a1.7 1.7 0 1 1 2.403-2.403l7.899 7.898 15.005-15.005a1.7 1.7 0 0 1 2.403 2.403z" fill="#27AE60"/></svg>